<svg width="218" height="25" viewBox="0 0 218 25" fill="none" xmlns="http://www.w3.org/2000/svg">
<path d="M5.34822 17.82V13.236H0.764219V11.472H5.34822V6.9H7.11222V11.472H11.6842V13.236H7.11222V17.82H5.34822ZM15.7209 21L21.9369 5.772H14.0889V3.72H24.2289V5.772L18.0249 21H15.7209ZM38.0743 24.672C37.1383 23.592 36.3343 22.38 35.6623 21.036C34.9903 19.692 34.4743 18.28 34.1143 16.8C33.7543 15.32 33.5823 13.84 33.5983 12.36C33.5823 10.872 33.7543 9.388 34.1143 7.908C34.4743 6.428 34.9903 5.02 35.6623 3.684C36.3343 2.34 37.1383 1.128 38.0743 0.0479994L39.6583 1.248C38.7143 2.368 37.9383 3.532 37.3303 4.74C36.7303 5.948 36.2863 7.192 35.9983 8.472C35.7103 9.744 35.5623 11.04 35.5543 12.36C35.5623 13.664 35.7103 14.96 35.9983 16.248C36.2943 17.528 36.7423 18.776 37.3423 19.992C37.9503 21.2 38.7223 22.356 39.6583 23.46L38.0743 24.672ZM49.812 21V17.82H41.868V15.792L47.568 3.72H49.992L44.292 15.792H49.812V10.932H51.972V15.792H53.772V17.82H51.972V21H49.812ZM61.9453 3.372C63.0493 3.372 64.0453 3.636 64.9333 4.164C65.8213 4.692 66.5253 5.412 67.0453 6.324C67.5733 7.236 67.8373 8.272 67.8373 9.432V15.18C67.8373 16.388 67.5773 17.456 67.0573 18.384C66.5373 19.312 65.8173 20.04 64.8973 20.568C63.9853 21.096 62.9373 21.36 61.7533 21.36C60.8093 21.36 59.9253 21.164 59.1013 20.772C58.2853 20.38 57.5933 19.824 57.0253 19.104L58.6213 17.688C58.9733 18.184 59.4253 18.584 59.9773 18.888C60.5293 19.184 61.1213 19.332 61.7533 19.332C62.5213 19.332 63.1973 19.148 63.7813 18.78C64.3733 18.412 64.8333 17.932 65.1613 17.34C65.4973 16.748 65.6653 16.108 65.6653 15.42V11.952L66.1333 12.48C65.6373 13.2 65.0013 13.776 64.2253 14.208C63.4493 14.64 62.6053 14.856 61.6933 14.856C60.6213 14.856 59.6613 14.604 58.8133 14.1C57.9653 13.596 57.2933 12.916 56.7973 12.06C56.3013 11.196 56.0533 10.228 56.0533 9.156C56.0533 8.084 56.3213 7.112 56.8573 6.24C57.3933 5.36 58.1053 4.664 58.9933 4.152C59.8893 3.632 60.8733 3.372 61.9453 3.372ZM61.9453 5.436C61.2573 5.436 60.6293 5.604 60.0613 5.94C59.5013 6.268 59.0533 6.716 58.7173 7.284C58.3813 7.844 58.2133 8.468 58.2133 9.156C58.2133 9.844 58.3773 10.472 58.7053 11.04C59.0413 11.6 59.4893 12.048 60.0493 12.384C60.6173 12.72 61.2453 12.888 61.9333 12.888C62.6213 12.888 63.2493 12.72 63.8173 12.384C64.3853 12.048 64.8333 11.6 65.1613 11.04C65.4973 10.472 65.6653 9.844 65.6653 9.156C65.6653 8.476 65.4973 7.856 65.1613 7.296C64.8333 6.728 64.3853 6.276 63.8173 5.94C63.2573 5.604 62.6333 5.436 61.9453 5.436ZM76.3115 21.36C75.4235 21.36 74.5955 21.176 73.8275 20.808C73.0675 20.44 72.4155 19.936 71.8715 19.296C71.3355 18.648 70.9515 17.904 70.7195 17.064L72.7715 16.512C72.9155 17.08 73.1715 17.572 73.5395 17.988C73.9075 18.396 74.3355 18.716 74.8235 18.948C75.3195 19.172 75.8355 19.284 76.3715 19.284C77.0755 19.284 77.7075 19.116 78.2675 18.78C78.8355 18.436 79.2835 17.984 79.6115 17.424C79.9395 16.856 80.1035 16.236 80.1035 15.564C80.1035 14.868 79.9315 14.24 79.5875 13.68C79.2515 13.112 78.7995 12.664 78.2315 12.336C77.6635 12.008 77.0435 11.844 76.3715 11.844C75.6115 11.844 74.9595 12.004 74.4155 12.324C73.8795 12.636 73.4555 13.02 73.1435 13.476L71.2475 12.756L71.7755 3.72H81.0515V5.748H72.8075L73.7555 4.86L73.3115 12.096L72.8435 11.484C73.3235 10.972 73.8955 10.576 74.5595 10.296C75.2315 10.016 75.9155 9.876 76.6115 9.876C77.6835 9.876 78.6435 10.128 79.4915 10.632C80.3395 11.128 81.0115 11.808 81.5075 12.672C82.0035 13.528 82.2515 14.492 82.2515 15.564C82.2515 16.628 81.9795 17.6 81.4355 18.48C80.8915 19.352 80.1675 20.052 79.2635 20.58C78.3675 21.1 77.3835 21.36 76.3115 21.36ZM86.0454 24.672L84.4614 23.46C85.3974 22.356 86.1654 21.2 86.7654 19.992C87.3734 18.776 87.8254 17.528 88.1214 16.248C88.4174 14.96 88.5654 13.664 88.5654 12.36C88.5654 11.04 88.4174 9.744 88.1214 8.472C87.8334 7.192 87.3854 5.948 86.7774 4.74C86.1774 3.532 85.4054 2.368 84.4614 1.248L86.0454 0.0479994C86.9814 1.128 87.7854 2.34 88.4574 3.684C89.1374 5.02 89.6534 6.428 90.0054 7.908C90.3654 9.388 90.5374 10.872 90.5214 12.36C90.5374 13.84 90.3654 15.32 90.0054 16.8C89.6534 18.28 89.1374 19.692 88.4574 21.036C87.7854 22.38 86.9814 23.592 86.0454 24.672ZM107.82 21V17.82H99.8758V15.792L105.576 3.72H108L102.3 15.792H107.82V10.932H109.98V15.792H111.78V17.82H109.98V21H107.82ZM119.953 3.372C121.057 3.372 122.053 3.636 122.941 4.164C123.829 4.692 124.533 5.412 125.053 6.324C125.581 7.236 125.845 8.272 125.845 9.432V15.18C125.845 16.388 125.585 17.456 125.065 18.384C124.545 19.312 123.825 20.04 122.905 20.568C121.993 21.096 120.945 21.36 119.761 21.36C118.817 21.36 117.933 21.164 117.109 20.772C116.293 20.38 115.601 19.824 115.033 19.104L116.629 17.688C116.981 18.184 117.433 18.584 117.985 18.888C118.537 19.184 119.129 19.332 119.761 19.332C120.529 19.332 121.205 19.148 121.789 18.78C122.381 18.412 122.841 17.932 123.169 17.34C123.505 16.748 123.673 16.108 123.673 15.42V11.952L124.141 12.48C123.645 13.2 123.009 13.776 122.233 14.208C121.457 14.64 120.613 14.856 119.701 14.856C118.629 14.856 117.669 14.604 116.821 14.1C115.973 13.596 115.301 12.916 114.805 12.06C114.309 11.196 114.061 10.228 114.061 9.156C114.061 8.084 114.329 7.112 114.865 6.24C115.401 5.36 116.113 4.664 117.001 4.152C117.897 3.632 118.881 3.372 119.953 3.372ZM119.953 5.436C119.265 5.436 118.637 5.604 118.069 5.94C117.509 6.268 117.061 6.716 116.725 7.284C116.389 7.844 116.221 8.468 116.221 9.156C116.221 9.844 116.385 10.472 116.713 11.04C117.049 11.6 117.497 12.048 118.057 12.384C118.625 12.72 119.253 12.888 119.941 12.888C120.629 12.888 121.257 12.72 121.825 12.384C122.393 12.048 122.841 11.6 123.169 11.04C123.505 10.472 123.673 9.844 123.673 9.156C123.673 8.476 123.505 7.856 123.169 7.296C122.841 6.728 122.393 6.276 121.825 5.94C121.265 5.604 120.641 5.436 119.953 5.436ZM134.319 21.36C133.431 21.36 132.603 21.176 131.835 20.808C131.075 20.44 130.423 19.936 129.879 19.296C129.343 18.648 128.959 17.904 128.727 17.064L130.779 16.512C130.923 17.08 131.179 17.572 131.547 17.988C131.915 18.396 132.343 18.716 132.831 18.948C133.327 19.172 133.843 19.284 134.379 19.284C135.083 19.284 135.715 19.116 136.275 18.78C136.843 18.436 137.291 17.984 137.619 17.424C137.947 16.856 138.111 16.236 138.111 15.564C138.111 14.868 137.939 14.24 137.595 13.68C137.259 13.112 136.807 12.664 136.239 12.336C135.671 12.008 135.051 11.844 134.379 11.844C133.619 11.844 132.967 12.004 132.423 12.324C131.887 12.636 131.463 13.02 131.151 13.476L129.255 12.756L129.783 3.72H139.059V5.748H130.815L131.763 4.86L131.319 12.096L130.851 11.484C131.331 10.972 131.903 10.576 132.567 10.296C133.239 10.016 133.923 9.876 134.619 9.876C135.691 9.876 136.651 10.128 137.499 10.632C138.347 11.128 139.019 11.808 139.515 12.672C140.011 13.528 140.259 14.492 140.259 15.564C140.259 16.628 139.987 17.6 139.443 18.48C138.899 19.352 138.175 20.052 137.271 20.58C136.375 21.1 135.391 21.36 134.319 21.36ZM142.889 13.236V11.472H150.089V13.236H142.889ZM160.671 21V17.82H152.727V15.792L158.427 3.72H160.851L155.151 15.792H160.671V10.932H162.831V15.792H164.631V17.82H162.831V21H160.671ZM172.805 3.372C173.909 3.372 174.905 3.636 175.793 4.164C176.681 4.692 177.385 5.412 177.905 6.324C178.433 7.236 178.697 8.272 178.697 9.432V15.18C178.697 16.388 178.437 17.456 177.917 18.384C177.397 19.312 176.677 20.04 175.757 20.568C174.845 21.096 173.797 21.36 172.613 21.36C171.669 21.36 170.785 21.164 169.961 20.772C169.145 20.38 168.453 19.824 167.885 19.104L169.481 17.688C169.833 18.184 170.285 18.584 170.837 18.888C171.389 19.184 171.981 19.332 172.613 19.332C173.381 19.332 174.057 19.148 174.641 18.78C175.233 18.412 175.693 17.932 176.021 17.34C176.357 16.748 176.525 16.108 176.525 15.42V11.952L176.993 12.48C176.497 13.2 175.861 13.776 175.085 14.208C174.309 14.64 173.465 14.856 172.553 14.856C171.481 14.856 170.521 14.604 169.673 14.1C168.825 13.596 168.153 12.916 167.657 12.06C167.161 11.196 166.913 10.228 166.913 9.156C166.913 8.084 167.181 7.112 167.717 6.24C168.253 5.36 168.965 4.664 169.853 4.152C170.749 3.632 171.733 3.372 172.805 3.372ZM172.805 5.436C172.117 5.436 171.489 5.604 170.921 5.94C170.361 6.268 169.913 6.716 169.577 7.284C169.241 7.844 169.073 8.468 169.073 9.156C169.073 9.844 169.237 10.472 169.565 11.04C169.901 11.6 170.349 12.048 170.909 12.384C171.477 12.72 172.105 12.888 172.793 12.888C173.481 12.888 174.109 12.72 174.677 12.384C175.245 12.048 175.693 11.6 176.021 11.04C176.357 10.472 176.525 9.844 176.525 9.156C176.525 8.476 176.357 7.856 176.021 7.296C175.693 6.728 175.245 6.276 174.677 5.94C174.117 5.604 173.493 5.436 172.805 5.436ZM181.819 13.236V11.472H189.019V13.236H181.819ZM197.249 21.36C196.361 21.36 195.533 21.176 194.765 20.808C194.005 20.44 193.353 19.936 192.809 19.296C192.273 18.648 191.889 17.904 191.657 17.064L193.709 16.512C193.853 17.08 194.109 17.572 194.477 17.988C194.845 18.396 195.273 18.716 195.761 18.948C196.257 19.172 196.773 19.284 197.309 19.284C198.013 19.284 198.645 19.116 199.205 18.78C199.773 18.436 200.221 17.984 200.549 17.424C200.877 16.856 201.041 16.236 201.041 15.564C201.041 14.868 200.869 14.24 200.525 13.68C200.189 13.112 199.737 12.664 199.169 12.336C198.601 12.008 197.981 11.844 197.309 11.844C196.549 11.844 195.897 12.004 195.353 12.324C194.817 12.636 194.393 13.02 194.081 13.476L192.185 12.756L192.713 3.72H201.989V5.748H193.745L194.693 4.86L194.249 12.096L193.781 11.484C194.261 10.972 194.833 10.576 195.497 10.296C196.169 10.016 196.853 9.876 197.549 9.876C198.621 9.876 199.581 10.128 200.429 10.632C201.277 11.128 201.949 11.808 202.445 12.672C202.941 13.528 203.189 14.492 203.189 15.564C203.189 16.628 202.917 17.6 202.373 18.48C201.829 19.352 201.105 20.052 200.201 20.58C199.305 21.1 198.321 21.36 197.249 21.36ZM213.523 21V17.82H205.579V15.792L211.279 3.72H213.703L208.003 15.792H213.523V10.932H215.683V15.792H217.483V17.82H215.683V21H213.523Z" fill="white"/>
</svg>
